<?xml version="1.0" encoding="utf-8"?>
<!-- Generator: Adobe Illustrator 16.0.0, SVG Export Plug-In . SVG Version: 6.00 Build 0)  -->
<!DOCTYPE svg PUBLIC "-//W3C//DTD SVG 1.1//EN" "http://www.w3.org/Graphics/SVG/1.1/DTD/svg11.dtd">
<svg version="1.1" xmlns="http://www.w3.org/2000/svg" xmlns:xlink="http://www.w3.org/1999/xlink" x="0px" y="0px" width="512px"
	 height="512px" viewBox="0 0 512 512" enable-background="new 0 0 512 512" xml:space="preserve">
<g id="Layer_2" display="none">
	<rect x="0" display="inline" width="512" height="512"/>
</g>
<g id="Layer_1">
	<g>
		<path d="M225.708,482.354c-2.847-4.146-5.402-8.071-8.18-11.841c-1.582-2.146-3.441-4.289-6.313-1.875
			c-0.335-0.245-0.536-0.313-0.579-0.434c-1.171-3.207-2.801-6.339-3.367-9.649c-0.813-4.763,1.244-7.989,7.052-5.527
			c1.577,0.666,3.042,1.594,4.613,2.27c2.675,1.151,3.169,6.288,1.136,8.166c-1.853,1.714-1.496,2.887,0.196,4.635
			c2.154,2.223,3.764,4.972,5.69,7.427c0.989,1.257,2.146,2.381,3.258,3.54c0.532,0.555,1.456,0.948,1.641,1.577
			c0.918,3.126,3.516,2.728,5.869,3.187c5.927,1.155,11.686-0.036,17.505-0.782c2.443-0.313,4.955-0.052,7.473-0.543
			c-3.981-1.957-8.094-3.688-11.906-5.928c-4.309-2.531-8.305-5.577-12.515-8.278c-2.072-1.332-4.308-2.404-6.481-3.569
			c-0.616-0.333-1.549-0.417-1.855-0.911c-0.584-0.942-0.821-2.103-1.204-3.166c0.984-0.044,1.97-0.163,2.949-0.108
			c1.587,0.086,3.186,0.511,4.748,0.396c7.015-0.53,13.527,0.512,19.486,4.676c5.014,3.507,10.466,6.386,15.491,9.876
			c2.242,1.561,4.35,3.686,5.727,6.021c1.407,2.384,3.228,3.895,5.586,3.227c2.74-0.775,5.079,0.219,7.515,0.604
			c4.115,0.656,8.06,0.465,12.093-0.533c3.618-0.893,7.377-1.226,11.006-2.082c1.782-0.42,3.446-1.397,5.104-2.24
			c1.134-0.575,2.194-0.813,2.824,0.479c0.604,1.238,0.047,2.114-1.318,2.46c-5.54,1.402-11.05,2.938-16.628,4.173
			c-3.229,0.717-6.563,1.271-9.861,1.328c-5.838,0.104-11.687-0.212-17.528-0.382c-3.044-0.092-5.47,0.639-8.149,2.625
			c-4.277,3.176-9.325,5.39-14.22,7.634c-3.1,1.419-6.445,2.516-9.797,3.123c-4.982,0.901-10.057,1.496-15.117,1.775
			c-7.28,0.399-14.591,0.283-21.877,0.64c-1.984,0.097-2.685-0.89-2.834-2.271c-0.082-0.751,0.756-2.13,1.452-2.347
			c5.08-1.584,9.103-4.63,13.041-8.111c3.339-2.951,7.992-3.071,12.208-4.009c0.401-0.089,0.771-0.298,1.744-0.68
			c-7.354-1.093-14.04-2.512-20.787-2.91c-3.188-0.188-6.496,1.557-9.736,2.479c-1.658,0.476-3.297,1.034-4.921,1.617
			c-1.969,0.708-3.924,1.157-3.925,4.118c-0.003,2.44-2.565,3.184-4.386,4.179c-4.514,2.473-8.598,0.889-13.063-1.62
			c1.884-2.479,3.535-4.84,5.384-7.037c2.1-2.493,4.837-2.037,7.465-1.092c1.484,0.534,2.495,0.342,3.85-0.572
			c1.63-1.101,3.679-1.597,5.57-2.299c0.852-0.317,1.752-0.507,2.602-1.012c-3.983-1.017-7.808-1.897-12.038-1.024
			c-7.617,1.573-15.231,0.852-22.711-1.369c-7.059-2.098-14.185-3.979-21.211-6.182c-1.063-0.332-2.022-1.774-2.487-2.923
			c-0.264-0.65,0.318-2.104,0.973-2.585c3.523-2.601,6.979-5.25,11.955-3.227c3.124,1.27,6.562,1.752,9.967,2.288
			c-3.923-2.208-7.819-4.468-11.792-6.581c-0.724-0.385-1.91-0.517-2.624-0.197c-3.83,1.721-7.852,1.649-11.842,1.345
			c-6.449-0.496-12.721-1.901-18.796-4.199c-3.953-1.498-7.986-2.779-11.986-4.157c-3.053-1.051-3.679-4.258-1.253-6.483
			c2.439-2.238,5.51-3.096,8.56-2.528c7.064,1.314,14.051,3.059,21.061,4.665c2.983,0.684,6.121,1.072,8.872,2.305
			c3.135,1.398,5.855,3.707,8.874,5.41c4.276,2.414,8.586,4.798,13.031,6.878c2.372,1.111,5.058,1.558,7.767,1.919
			c-1.77-1.67-3.798-3.14-5.248-5.053c-2.067-2.725-3.75-5.75-5.526-8.688c-1.543-2.553-3.511-4.568-6.312-5.752
			c-1.55-0.651-2.328-2.851-1.461-4.194c0.296-0.463,1.271-0.938,1.721-0.778c4.199,1.438,8.479,2.748,12.487,4.625
			c4.765,2.232,9.818,3.882,14.021,7.352c4.938,4.078,8.234,9.236,11.049,14.814c0.741,1.47,1.144,3.14,2.05,4.482
			c0.783,1.165,1.938,2.205,3.148,2.936c3.819,2.303,8.061,3.246,12.466,3.855c4.158,0.575,8.234,1.737,12.35,2.627
			C224.796,482.409,225.119,482.354,225.708,482.354z M263.206,489.722c-3.331-0.243-6.628-0.568-9.932-0.712
			c-9.934-0.418-19.628,1.334-29.296,3.318c-3.985,0.818-6.618,3.449-9.561,6.422C231.821,499.963,248.096,497.968,263.206,489.722z
			 M192.134,471.746c-2.901-9.243-19.379-23.173-27.038-22.992C168.755,460.3,185.653,471.718,192.134,471.746z M146.249,457.646
			c0.065-0.232,0.132-0.467,0.2-0.699c-1.424-0.562-2.835-1.162-4.276-1.67c-1.802-0.64-3.645-1.149-5.437-1.796
			c-2.203-0.792-4.308-1.964-6.567-2.451c-5.817-1.252-11.683-2.324-17.564-3.233c-2.018-0.311-4.002,0.476-5.669,2.018
			C120.147,452.19,132.287,459.548,146.249,457.646z M238.397,464.974c4.904,7.266,27.965,17.402,33.661,17.104
			c-0.936-0.807-1.616-1.581-2.457-2.104c-6.664-4.156-13.312-8.342-20.065-12.355C246.222,465.648,242.694,464.055,238.397,464.974
			z M183.947,477.339c-0.733-0.419-0.95-0.611-1.2-0.676c-10.48-2.767-20.966-5.499-31.436-8.304
			c-2.015-0.539-3.267,0.23-4.59,2.127C159.109,472.858,170.601,478.321,183.947,477.339z M217.764,460.978
			c-1.217-2.67-3.475-3.84-6.035-4.478c-0.497-0.123-1.72,0.626-1.689,0.742c0.53,2.116,1.024,4.224,3.35,5.322
			C215.571,463.596,216.471,461.941,217.764,460.978z"/>
		<path d="M390.202,62.472c4.932,2.724,9.943,5.307,14.761,8.216c4.108,2.481,7.979,5.356,11.983,8.014
			c0.621,0.412,1.621,1.038,2.06,0.812c2.838-1.457,5.62-0.507,8.295,0.172c5.004,1.269,10.107,2.448,14.822,4.477
			c4.807,2.068,8.418,5.97,11.262,10.393c1.11,1.73-0.598,4.742-2.633,4.549c-3.495-0.33-7.002-0.833-10.417-1.64
			c-2.88-0.68-5.685-1.771-8.429-2.916c-1.449-0.604-2.688-1.711-4.021-2.592c-0.184,0.185-0.362,0.369-0.546,0.555
			c6.22,8.088,12.438,16.181,18.675,24.258c0.375,0.488,0.89,1.196,1.367,1.217c2.097,0.095,2.974,1.112,2.984,3.144
			c0.001,0.291,0.547,0.722,0.919,0.842c5.25,1.688,8.893,5.555,12.683,9.239c3.261,3.171,6.633,6.23,9.842,9.452
			c2.707,2.715,5.282,5.56,7.846,8.41c0.879,0.977,0.172,4.265-1.025,5.475c-1.401,1.419-3.699,1.736-5.087,0.435
			c-1.825-1.715-3.448-3.646-5.174-5.47c-1.438-1.519-2.897-3.018-4.349-4.526c-0.201,0.166-0.402,0.333-0.603,0.5
			c0.669,0.956,1.386,1.881,1.994,2.873c2.499,4.045,4.685,8.318,7.515,12.113c3.451,4.628,5.539,9.8,7.257,15.176
			c0.465,1.455,0.536,3.14,0.362,4.671c-0.261,2.285-2.518,3.246-3.827,1.564c-3.785-4.863-9.427-8.102-11.843-14.201
			c-2.593-6.542-5.635-12.908-8.503-19.341c-0.536-1.202-1.175-2.36-2.007-4.015c-1.501,2.857-1.417,5.441-1.466,8.029
			c-0.021,1.057-0.195,2.213-0.663,3.142c-1.161,2.313-1.267,2.279-3.337,1.601c-0.958-2.654-1.964-4.978-2.641-7.393
			c-1.757-6.271-4.163-12.566-3.026-19.165c0.752-4.37-0.889-7.511-3.138-10.78c-0.636-0.927-0.727-2.213-1.22-3.262
			c-0.519-1.097-1.13-2.175-1.866-3.138c-3.145-4.122-6.343-8.203-9.544-12.285c-0.37-0.471-0.873-0.837-1.661-1.576
			c-0.186,1.048-0.413,1.701-0.396,2.347c0.144,5.508,0.311,11.015,0.539,16.518c0.025,0.542,0.487,1.5,0.806,1.525
			c2.5,0.2,2.186,2.006,1.94,3.499c-0.647,4.002-2.396,7.386-6.143,9.391c-0.438,0.235-1.04,0.425-1.495,0.319
			c-2.499-0.576-5.707-5.101-5.568-7.736c0.224-4.207,2.315-7.1,5.696-7.613c1.562-0.239,1.949-1.051,1.829-2.445
			c-0.313-3.693-0.624-7.389-0.873-11.086c-0.173-2.589,0.149-5.065,2.325-6.979c-6.966-10.084-15.354-18.503-26.069-24.581
			c0.494,0.599,1.058,1.156,1.477,1.808c1.896,2.959,3.834,5.901,5.604,8.938c1.89,3.246,3.419,6.664,6.277,9.332
			c0.705,0.657,0.419,2.946-0.095,4.207c-0.729,1.79-2.452,0.759-3.342,0.125c-2.945-2.093-5.909-4.238-8.482-6.754
			c-3.746-3.662-7.357-7.509-10.665-11.569c-3.407-4.179-6.706-8.48-8.413-13.788c-0.482-1.499-1.754-3.045-3.091-3.915
			c-5.894-3.836-11.846-7.553-18.538-9.999c-7.29-2.663-14.349-5.968-21.636-8.634c-5.42-1.983-11.053-3.37-16.567-5.089
			c-0.935-0.29-1.847-0.817-2.575-1.454c-0.252-0.22-0.139-1.382,0.182-1.63c0.648-0.5,1.711-1.123,2.33-0.909
			c9.267,3.221,18.501,6.55,27.724,9.899c6.249,2.268,12.453,4.658,18.725,6.858c0.825,0.291,1.999-0.035,2.899-0.377
			c4.724-1.795,9.447-3.638,14.626-3.23c5.677,0.449,11.104,1.96,16.129,4.656c3.528,1.896,6.954,3.988,10.372,6.08
			c0.991,0.607,1.989,1.393,2.625,2.339c0.434,0.652,0.608,1.955,0.231,2.532c-0.341,0.525-1.744,0.867-2.4,0.603
			c-4.016-1.622-7.932-0.896-12.023-0.293c-3.036,0.448-6.249-0.3-9.383-0.52c-0.656-0.046-1.311-0.106-1.963-0.16
			C390.349,61.971,390.278,62.22,390.202,62.472z M405.273,59.113c0.044-0.228,0.086-0.455,0.13-0.682
			c-3.307-1.277-6.538-2.836-9.941-3.747c-3.327-0.889-6.815-1.264-10.261-1.585c-2.425-0.228-4.997-0.467-7.269,1.472
			C386.806,58.758,395.714,61.117,405.273,59.113z M428.297,87.213c5.556,6.134,12.683,6.751,19.381,8.4
			C442.31,90.81,436.059,88.054,428.297,87.213z M403.492,84.99c0.153-0.132,0.308-0.265,0.462-0.396
			c-3.155-6.809-9.043-13.596-13.37-14.618C394.888,74.981,399.189,79.987,403.492,84.99z M449.939,133.358
			c-0.315,0.059-0.628,0.119-0.944,0.179c0.852,4.119,1.7,8.238,2.665,12.909C454.842,141.023,451.609,137.33,449.939,133.358z
			 M426.698,124.803c-0.896-0.787-1.43-1.359-2.063-1.784c-0.59-0.394-1.284-0.631-1.932-0.938
			c-0.296,0.734-1.014,1.632-0.805,2.169c0.567,1.449,1.528,2.745,2.333,4.1c0.256-0.033,0.512-0.068,0.771-0.103
			C425.565,127.108,426.122,125.969,426.698,124.803z M458.068,135.95c-0.358,0.361-0.724,0.723-1.085,1.082
			c2.549,2.6,5.102,5.199,7.65,7.798c0.231-0.206,0.46-0.41,0.688-0.616C462.906,141.46,460.487,138.705,458.068,135.95z"/>
		<path d="M216.511,41.667c-2.336-0.586-4.339-1.062-6.328-1.592c-3.619-0.968-7.216-2.025-10.852-2.934
			c-1.913-0.477-4.125,0.037-5.543-1.979c-0.184-0.262-1.212-0.098-1.768,0.096c-3.335,1.161-6.753,2.165-9.929,3.673
			c-2.196,1.042-4.045,2.816-6.05,4.263c0.112,0.204,0.224,0.408,0.335,0.614c2.181,0,4.365-0.084,6.543,0.018
			c3.666,0.173,7.348,0.317,10.982,0.806c0.925,0.125,2.103,1.37,2.408,2.337c0.395,1.24-0.309,2.097-1.787,2.964
			c-4.947,2.915-10.426,3.16-15.811,3.966c-3.738,0.559-7.509,0.889-11.25,1.42c-3.975,0.566-7.601-0.443-11.169-2.058
			c-0.741-0.337-1.849-0.466-2.559-0.163c-3.673,1.561-7.394,3.053-9.874,6.549c-0.333,0.467-2.227-0.178-3.398-0.308
			c-0.071-0.379-0.141-0.759-0.213-1.14c-3.56,1.907-7.183,3.704-10.658,5.752c-4.93,2.904-9.761,5.976-14.608,9.02
			c-1.241,0.781-2.361,1.753-3.564,2.598c-0.733,0.516-1.283,2.034-2.463,0.736c-1.137-1.25-0.543-2.354,0.67-3.158
			c2.217-1.474,4.451-2.925,6.72-4.323c5.749-3.545,11.489-7.107,17.304-10.546c1.861-1.102,3.943-1.828,5.917-2.747
			c4.683-2.184,9.401-4.295,14.02-6.609c2.179-1.092,4.119-2.649,6.246-3.859c0.711-0.403,1.659-0.431,2.505-0.554
			c2.306-0.331,3.277-1.856,3.745-4.065c0.539-2.536,1.494-5.077,2.755-7.344c2.057-3.688,4.32-7.294,6.832-10.688
			c3.664-4.953,8.753-8.356,13.878-11.606c2.305-1.463,4.85-2.629,7.419-3.558c1.097-0.397,2.749-0.192,3.741,0.41
			c0.563,0.342,0.778,2.33,0.331,3.089c-4.27,7.202-8.704,14.307-13.123,21.418c-0.354,0.568-0.954,0.981-1.316,1.802
			c2.596-0.878,5.169-1.83,7.797-2.606c1.63-0.482,3.354-0.643,5.003-1.066c0.729-0.187,1.382-0.664,2.072-1.008
			c0.611-0.302,1.298-0.959,1.817-0.849c4.025,0.857,6.621-1.267,9.084-3.968c6.798-7.466,15.385-12.459,24.133-17.204
			c1.575-0.855,3.223-1.606,4.897-2.234c0.722-0.269,2.027-0.438,2.332-0.06c0.597,0.742,1.234,2.219,0.879,2.829
			c-2.143,3.721-4.38,7.421-6.974,10.837c-1.16,1.526-3.215,2.375-5.052,3.664c1.114,0.082,2.29,0.362,3.411,0.216
			c4.756-0.617,9.499-1.359,14.24-2.056c0.393-0.057,0.828-0.264,1.17-0.157c6.068,1.905,10.691-2.071,15.813-3.916
			c5.732-2.065,11.294-4.646,17.108-6.405c3.007-0.91,6.404-0.538,9.626-0.726c4.707-0.276,9.418-0.598,14.134-0.748
			c0.938-0.03,2.386,0.374,2.735,1.037c0.688,1.287-0.274,2.333-1.527,2.965c-3.479,1.752-7.21,3.143-10.365,5.358
			c-3.904,2.74-7.747,5.251-12.781,5.67c3.129,2.611,6.104,5.083,10.212,5.801c4.518,0.789,9.018,1.756,13.449,2.921
			c1.864,0.491,4.249,1.066,3.864,3.915c-0.074,0.549-1.027,1.512-1.272,1.426c-5.565-1.972-11.036,0.623-16.538,0.269
			c-5.589-0.358-11.181-0.748-16.739-1.385c-3.253-0.373-6.605-0.85-9.619-2.029c-2.606-1.02-4.874-2.999-7.154-4.732
			c-1.554-1.182-2.651-3.197-4.346-3.906c-2.748-1.15-5.837-2.202-8.743-2.103c-6.017,0.204-12.005,1.187-18.001,1.867
			c-0.292,0.033-0.565,0.223-1.571,0.641c3.277,0.59,5.912,0.928,8.477,1.556c3.326,0.813,6.592,1.86,9.886,2.792
			c0.808,0.229,1.657,0.328,2.441,0.614c1.008,0.366,2.125,0.682,2.898,1.358c0.551,0.483,0.608,1.526,0.888,2.32
			c-0.789,0.189-1.611,0.632-2.355,0.524c-3.05-0.452-5.202,1.768-7.831,2.423c-3.658,0.912-7.489,1.979-11.174,1.762
			c-6.081-0.356-12.108-1.692-18.162-2.592c-0.609-0.089-1.245-0.011-1.898,0.164c3.272,1.401,6.082,4.065,10.191,2.896
			c2.137-0.607,5.792,1.812,6.589,3.966c0.585,1.577,1.536,3.222,1.459,4.795c-0.183,3.744-2.903,6.094-6.604,6.14
			c-3.752,0.045-6.317-1.078-8.387-4.93C214.457,46.928,214.295,44.915,216.511,41.667z M169.153,41.072
			c3.264,0.019,4.974-1.333,6.659-2.93c2.21-2.092,4.607-3.985,6.871-6.017c1.569-1.406,3.4-2.68,4.512-4.401
			c3.044-4.717,5.769-9.641,8.591-14.431c0.033,0.006-0.134-0.084-0.25-0.042c-6.669,2.466-11.771,7.085-16.158,12.421
			c-2.816,3.423-4.987,7.378-7.441,11.1C171.097,38.048,170.274,39.339,169.153,41.072z M297.818,34.255
			c-4.043-2.155-7.549-4.146-11.166-5.905c-2.347-1.141-4.79-2.245-7.313-2.809c-2.9-0.646-5.934-0.766-8.912-0.946
			c-2.368-0.143-4.752-0.029-7.129-0.029c-0.102,0.286-0.203,0.573-0.303,0.858c2.457,1.59,4.727,3.82,7.422,4.635
			c5.228,1.581,10.67,2.554,16.08,3.417C290.115,34.055,293.839,34.006,297.818,34.255z M212.548,31.333
			c4.971,1.045,9.468,2.127,14.016,2.902c3.542,0.604,7.168,1.235,10.727,1.089c2.822-0.118,5.596-1.397,8.388-2.161
			c-0.052-0.493-0.106-0.987-0.163-1.481C234.76,29.26,224.044,25.89,212.548,31.333z M300.183,14.425
			c-10.316-1.873-22.047,1.011-30.014,6.865c6.825,0.394,13.359,0.222,19.605-1.288C293.477,19.105,296.73,16.345,300.183,14.425z
			 M189.416,46.621c-8.643-2.037-21.428,0.682-26.615,3.793C165.626,51.908,186.62,49.009,189.416,46.621z M220.613,22.96
			c6.282,0.905,17.479-6.536,18.528-12.182C232.315,14.188,226.063,17.935,220.613,22.96z M222.216,50.229
			c3.142-0.043,5.313-1.369,4.744-2.472c-0.577-1.117-2.308-2.708-2.988-2.479c-1.441,0.486-2.53,2.021-3.763,3.125
			C221.035,49.156,221.862,49.906,222.216,50.229z"/>
		<path d="M60.51,106.298c-1.293,0.611-1.892,0.977-2.543,1.187c-4.314,1.388-5.824,0.066-6.955-3.749
			c-0.741-2.495-0.474-5.405-0.161-8.068c0.349-2.913,2.913-4.192,5.565-3.072c2.01,0.848,4.038,1.72,5.872,2.88
			c0.872,0.549,1.903,1.854,1.814,2.708c-0.217,2.058-1.175,4.026-1.589,6.081c-0.257,1.275-0.398,2.75-0.011,3.947
			c1.262,3.884,0.721,7.755,0.384,11.653c-0.054,0.65,0.123,1.318,0.191,1.979c0.21,0.063,0.417,0.125,0.624,0.188
			c0.943-1.581,2.146-3.063,2.785-4.762c1.853-4.93,3.351-9.994,5.219-14.918c4.021-10.606,10.282-19.746,18.699-27.343
			c0.856-0.772,2.621-1.194,3.722-0.893c1.681,0.461,2.609,2.144,2.365,3.939c-0.279,2.003-0.775,4.012-1.463,5.916
			c-1.365,3.806-3.287,7.448-4.319,11.333c-1.392,5.224-4.842,8.547-8.893,11.619c-7.889,5.982-13.82,13.667-18.866,22.09
			c-0.24,0.404-0.407,0.86-0.563,1.307c-0.102,0.281-0.124,0.59-0.262,1.315c1.864-1.984,3.531-3.587,4.99-5.359
			c1.806-2.193,4.148-3.167,6.812-3.875c3.705-0.984,7.096-2.719,9.392-5.938c0.968-1.36,1.938-1.182,3.012-0.52
			c1.09,0.67,1.184,1.576,0.583,2.797c-1.796,3.651-3.243,7.489-5.202,11.042c-2.86,5.186-7.621,8.609-12.173,12.181
			c-1.844,1.447-3.785,2.8-5.466,4.417c-1.856,1.781-3.965,2.506-6.438,2.282c-1.824-0.166-2.97,0.653-3.831,2.178
			c-0.853,1.507-1.82,2.949-3.059,4.932c1.048,0.224,1.846,0.59,2.612,0.528c5.723-0.452,11.446-0.909,17.146-1.563
			c1.12-0.13,2.277-0.969,3.185-1.751c2.483-2.148,3.652-2.202,6.104,0.008c1.743,1.573,3.586,3.013,3.956,5.613
			c0.317,2.232-0.396,4.026-2.255,5.039c-2.264,1.232-4.683,1.781-7.004-0.204c-0.863-0.736-1.993-1.159-2.999-1.725
			c-0.205,0.167-0.409,0.334-0.612,0.501c0.139-1.438,0.277-2.873,0.453-4.708c-2.062,0.405-3.865,0.765-5.672,1.116
			c-4.694,0.907-9.386,1.823-14.087,2.696c-0.512,0.094-1.165,0.092-1.597-0.147c-1.915-1.066-2.646-0.164-3.775,1.448
			c-2.974,4.235-4.002,9.076-5.279,13.905c-0.938,3.554-2.258,7.009-3.365,10.521c-0.259,0.822-0.337,1.703-0.004,2.728
			c2.847-4.091,5.632-8.231,8.564-12.262c1.983-2.728,4.076-5.391,6.301-7.922c1.798-2.045,3.123-1.556,4.465,0.862
			c1.736,3.123,0.145,6.002-0.267,8.954c-1.168,8.365-5.529,15.165-11.429,20.822c-4.191,4.02-9.296,7.072-13.729,10.864
			c-1.654,1.414-2.794,3.593-3.747,5.623c-0.971,2.072-1.317,4.434-2.13,6.598c-0.703,1.869-1.918,3.564-2.474,5.463
			c-0.691,2.378-1.154,4.871-1.338,7.342c-0.387,5.231-0.533,10.484-0.764,15.73c-0.146,3.313-0.355,6.625-0.362,9.94
			c-0.008,3.421,0.326,6.841,0.238,10.254c-0.033,1.354-0.801,2.688-1.231,4.031c-0.325,0.014-0.65,0.025-0.977,0.039
			c-0.356-0.911-1.008-1.817-1.018-2.732c-0.063-6.927-0.104-13.857,0.059-20.783c0.141-5.962,0.491-11.922,0.893-17.871
			c0.14-2.015,0.357-4.177,1.202-5.958c1.313-2.764-0.064-4.472-1.45-6.519c-1.775-2.628-2.91-5.745-4.914-8.157
			c-3.981-4.796-3.551-10.077-2.676-15.602c0.669-4.244,0.991-8.546,1.762-12.769c0.23-1.262,1.21-2.849,2.292-3.386
			c1.567-0.775,2.244,0.979,2.77,2.166c1.585,3.583,2.347,7.364,3.149,11.208c1.091,5.21,3.266,10.193,4.991,15.316
			c3.144-1.049,3.866-3.512,4.512-5.786c0.655-2.309,0.82-4.765,1.138-7.163c0.287-2.167,0.012-4.121-1.458-5.989
			c-3.282-4.166-3.957-9.095-3.628-14.247c0.18-2.836,0.442-5.69,0.31-8.519c-0.27-5.657,0.876-11.075,2.268-16.485
			c0.644-2.503,0.874-5.133,1.747-7.54c0.369-1.021,1.822-1.872,2.972-2.27c0.397-0.137,1.823,1.237,1.971,2.067
			c0.792,4.376,1.185,8.825,1.994,13.197c0.55,2.954,1.563,5.822,2.367,8.73c0.257-0.014,0.514-0.029,0.772-0.042
			c1.543-2.571,3.072-5.157,4.64-7.716c2.045-3.333,4.264-6.569,6.133-9.996c1.244-2.287,2.456-4.588,2.501-7.458
			c0.031-1.889,1.288-3.781,2.091-5.631c0.781-1.803,1.827-3.501,2.479-5.345c0.672-1.894,1.141-3.886,1.456-5.872
			c0.561-3.561,1.159-7.141,1.327-10.73C61.438,111.777,60.846,109.288,60.51,106.298z M34.136,203.888
			c9.948-4.346,20.938-22.527,18.592-30.765C45.42,182.787,38.549,192.22,34.136,203.888z M94.296,78.45
			c-5.939,1.199-19.149,22.001-19.23,29.515c2.451-2.039,5.083-4.002,7.427-6.258c1.711-1.648,3.384-3.512,4.476-5.594
			c1.765-3.377,3.053-7.005,4.507-10.542C92.416,83.29,93.296,80.983,94.296,78.45z M34.041,150.616
			c-5.155,9.817-2.407,20.267-3.009,30.408c-0.146,2.434,1,4.946,1.553,7.42c0.253-0.031,0.506-0.064,0.762-0.096
			c0.303-0.964,0.679-1.911,0.899-2.893c0.87-3.875,0.494-8.079,3.01-11.51c1.165-1.594,0.924-3.152,0.398-4.928
			c-1.168-3.949-2.229-7.94-3.089-11.966C34.123,154.96,34.198,152.763,34.041,150.616z M58.485,143.884
			c0.181,0.189,0.365,0.376,0.552,0.565c2.242-1.718,4.541-3.371,6.722-5.167c3.807-3.132,7.715-6.176,11.234-9.609
			c1.667-1.627,2.533-4.074,4.048-6.631c-5.735,1.988-11.307,2.694-14.518,7.359C63.562,134.705,59.986,138.718,58.485,143.884z
			 M16.335,190.169c-1.556,5.359-3.357,10.876-2.165,16.001c1.06,4.558,4.574,8.549,7.072,12.751
			c0.195,0.327,0.926,0.333,1.584,0.546c0.223-4.729-0.335-8.931-2.07-13.239C18.752,201.239,17.836,195.813,16.335,190.169z"/>
		<path d="M483.59,226.826c-0.815,4.595-1.746,9.174-2.416,13.792c-1.053,7.249-1.899,14.521-2.903,21.774
			c-0.202,1.459-0.627,2.955-2.508,3.176c-2.028,0.244-4.341-1.133-5.063-3.121c-1.461-4.024-1.487-8.125-0.948-12.357
			c0.911-7.162,2.984-13.894,6.555-20.157c1.533-2.695,3.162-5.337,4.728-8.015c1.654-2.828,1.157-5.899,0.948-8.931
			c-0.033-0.453-0.464-1.002-0.314-1.329c1.366-3.011-0.174-5.511-1.405-8.011c-1.55-3.148-3.354-6.178-4.848-9.352
			c-0.336-0.714,0.152-1.817,0.263-2.741c0.905,0.23,2.065,0.2,2.65,0.759c0.675,0.644,0.859,1.808,1.221,2.761
			c1.86,4.914,3.991,9.748,5.488,14.768c1.729,5.792,5.485,10.158,9.161,14.628c5.74,6.978,10.647,14.486,13.172,23.192
			c0.944,3.248,0.19,6.947,0.607,10.395c0.481,4.01,1.459,7.955,2.083,11.951c0.2,1.279-0.036,2.625-0.073,3.941
			c-1.35-0.395-3.122-0.393-3.966-1.272c-1.488-1.557-2.44-3.639-3.574-5.528c-3.847-6.431-7.605-12.919-8.689-20.501
			c-0.287-2.018-0.162-4.096-0.195-6.146c-0.086-6.18-3.174-11.26-6.196-16.404c0.466,2.508,1.065,5,1.368,7.528
			c0.426,3.576,0.59,7.184,0.934,10.769c0.528,5.46,1.088,10.917,1.691,16.368c0.258,2.32,0.449,4.692,1.11,6.908
			c0.388,1.307,1.754,2.286,2.479,3.527c1.857,3.184,3.509,6.486,5.438,9.619c0.646,1.047,1.788,1.897,2.878,2.545
			c5.674,3.371,7.13,6.552,4.718,12.302c-0.56,1.327-1.332,2.075-2.874,1.044c-0.435-0.29-1.287-0.169-1.866,0.02
			c-3.267,1.045-5.319-0.244-5.985-3.494c-0.545-2.672-1.818-5.264-0.021-7.926c0.1-0.145,0.041-0.582-0.082-0.66
			c-3.682-2.269-4.03-6.516-6.302-9.924c-0.188,1.947-0.371,3.898-0.565,5.849c-0.644,6.473-1.417,12.933-1.881,19.42
			c-0.177,2.463,0.486,4.971,0.538,7.465c0.166,8.11,0.355,16.22,0.277,24.327c-0.058,6.167-2.262,11.886-4.528,17.52
			c-0.832,2.065-1.898,4.064-3.129,5.913c-0.432,0.646-1.825,1.183-2.52,0.96c-0.673-0.217-1.388-1.447-1.436-2.27
			c-0.321-5.272-0.468-10.555-0.661-15.835c-0.113-3.097-0.213-6.19-0.315-9.283c-0.377-0.077-0.753-0.156-1.128-0.229
			c-1.611,4.531-3.979,8.953-4.649,13.623c-0.923,6.447-2.22,12.559-5.919,17.996c-0.434,0.641-0.909,1.256-1.468,2.018
			c-3.943-3.168-3.661-7.329-3.136-11.408c1.029-7.966,4.3-15.184,8.155-22.107c2.508-4.504,5.521-8.736,8.267-13.115
			c0.41-0.651,0.636-1.437,0.881-2.186c1.501-4.615,2.971-9.242,4.49-13.855c0.187-0.563,0.563-1.465,0.927-1.502
			c2.189-0.233,2.342-2.111,2.574-3.474c0.545-3.206,0.687-6.481,0.534-9.811c-1.753,2.546-3.479,5.108-5.272,7.635
			c-0.582,0.821-1.184,1.802-2.019,2.249c-2.291,1.23-2.679,3.264-2.963,5.533c-0.313,2.517-2.362,4.365-4.626,4.468
			c-5.292,0.231-8.913-5.315-6.672-10.228c2.136-4.668,6.123-5.283,9.325-1.248c1.159,1.465,1.939,1.229,2.71,0.06
			c3.175-4.835,6.515-9.593,9.231-14.681c1.008-1.885,0.668-4.604,0.565-6.924c-0.084-1.903,0.192-3.481,1.209-5.147
			c0.621-1.013,0.645-2.534,0.564-3.804c-0.229-3.604-0.65-7.193-0.98-10.792c-0.589-6.404-1.121-12.808-1.784-19.202
			c-0.134-1.296-0.731-2.546-1.117-3.818C484.086,226.834,483.838,226.831,483.59,226.826z M480.378,344.495
			c5.403-10.423,4.275-21.526,3.36-32.608C479.027,322.381,480.858,333.557,480.378,344.495z M479.819,233.86
			c-4.54,7.008-6.308,14.681-6.617,22.693c-0.082,2.133-0.074,4.508,2.662,6.606C477.229,253.059,478.522,243.458,479.819,233.86z
			 M496.981,238.881c-0.868,8.806,1.763,16.218,6.182,23.711C503.078,253.943,503.173,245.804,496.981,238.881z M464.224,350.832
			c2.533-1.891,3.524-6.152,2.575-10.391C465.94,343.907,465.081,347.369,464.224,350.832z M469.654,292.124
			c-0.345,2.056-0.687,3.585-0.808,5.137c-0.034,0.452,0.566,0.955,0.876,1.435c0.483-0.316,1.144-0.525,1.417-0.973
			C472.277,295.871,471.932,294.176,469.654,292.124z"/>
		<path d="M382.521,447.829c-2.644,0.156-3.339,2.903-4.933,4.597c-7.813,8.315-15.151,17.167-25.249,22.938
			c-2.835,1.618-5.958,2.729-8.915,4.139c-1.105,0.527-2.05,1.563-3.187,1.809c-1.742,0.367-3.637,0.529-5.357,0.216
			c-0.702-0.13-1.776-1.536-0.538-2.899c0.703-0.772,1.094-1.869,1.502-2.863c1.062-2.604,2.937-4.445,5.322-5.81
			c6.678-3.815,13.54-7.345,20.007-11.49c5.585-3.582,10.716-7.868,16.071-11.812c1.486-1.099,3.063-2.081,4.538-3.735
			c-1.565-0.161-3.224-0.727-4.685-0.399c-3.358,0.744-7.155,0.25-9.689,3.654c-1.632,2.199-4.007,1.808-6.381,0.308
			c-2.622-1.661-4.363-3.745-4.312-6.794c0.021-1.16,0.965-2.844,1.96-3.343c2.506-1.258,5.182-1.479,7.89,0.062
			c1.792,1.022,3.777,1.599,1.953,4.879c0.315-0.113,0.635-0.228,0.948-0.337c1.461-0.456,2.962-0.804,4.363-1.39
			c4.276-1.794,8.57-0.274,12.749,0.186c2.999,0.328,5.102-0.494,7.391-1.97c3.042-1.956,6.318-3.564,9.272-5.641
			c2.789-1.959,5.292-4.331,7.915-6.524c1.48-1.242,2.974-2.476,4.425-3.749c0.628-0.557,1.173-1.208,1.507-2.201
			c-1.615,0.684-3.196,1.466-4.851,2.028c-3.689,1.269-7.454,2.324-11.121,3.649c-3.951,1.43-7.846,3.032-11.729,4.638
			c-1.362,0.56-2.629,0.736-3.559-0.545c-0.339-0.462-0.477-1.595-0.168-1.922c2.438-2.628,4.81-5.375,7.575-7.629
			c6.827-5.553,14.639-9.07,23.419-10.268c2.104-0.287,4.254-0.331,6.316-0.787c2.812-0.625,5.65-1.098,7.646-3.777
			c0.918-1.232,3.164-1.404,4.307-2.554c3.417-3.427,6.633-7.062,9.838-10.692c2.909-3.297,5.793-6.625,8.51-10.084
			c1.582-2.01,2.77-4.328,4.21-6.453c0.872-1.275,1.896-2.455,3.051-3.933c0.87,0.914,1.479,1.556,2.203,2.323
			c-7.35,9.748-14.566,19.328-21.89,29.044c1.753,1.431,0.266,3.155-0.055,4.944c-0.563,3.148-0.79,6.358-1.315,9.517
			c-0.889,5.313-4.167,9.431-7.162,13.653c-2.574,3.635-5.241,7.203-8.011,10.691c-0.781,0.982-1.967,1.809-3.14,2.277
			c-2.08,0.839-3.791-0.592-3.203-2.786c0.666-2.48,1.765-4.854,2.795-7.22c1.277-2.939,2.583-5.776,2.525-9.172
			c-0.035-2.076,0.935-4.172,1.473-6.346c-0.2,0.071-0.684,0.102-0.951,0.357c-2.794,2.652-5.659,5.24-8.249,8.082
			c-0.77,0.845-0.617,2.471-1.066,3.673c-1.752,4.709-3.605,9.383-5.361,14.088c-0.439,1.167-0.604,2.431-0.993,3.617
			c-0.366,1.108-0.224,1.7,1.023,2.135c0.544,0.191,1.21,1.381,1.073,1.938c-0.722,2.968-1.458,5.975-2.629,8.781
			c-0.914,2.203-3.072,1.768-4.974,1.312c-1.474-0.353-2.271-0.952-1.932-2.803c0.187-1.003-0.735-2.179-1.066-3.309
			c-1.005-3.429-1.714-6.584,2.156-9.145c1.468-0.965,1.923-3.477,2.818-5.291c0.998-2.012,1.979-4.036,3.271-6.684
			c-3.153,2.062-5.936,3.34-7.612,6.349c-4.616,8.263-9.336,16.521-15.783,23.529c-3.462,3.766-7.333,7.178-11.211,10.526
			c-2.171,1.876-4.899,1.808-6.273,0.419c-0.831-0.842-1.126-1.491-0.125-2.567c1.767-1.897,3.578-3.845,4.88-6.058
			c1.735-2.948,2.845-6.258,4.509-9.249C378.191,454.479,380.435,451.169,382.521,447.829z M426.774,428.926
			c4.947-5.536,8.299-11.56,8.173-19.072c-2.078,2.49-3.883,5.127-5.746,7.72C426.765,420.967,425.767,424.644,426.774,428.926z
			 M391.41,446.252c-7.27,4.989-11.52,8.906-13.736,18.295C380.767,462.964,391.001,449.339,391.41,446.252z M395.951,423.242
			c7.492-2.237,15.229-3.878,21.658-8.732C409.62,415.532,402.297,418.176,395.951,423.242z M356.405,465.632
			c-5.957,3.19-13.266,4.161-17.217,10.526C345.575,473.696,351.801,470.972,356.405,465.632z M405.209,451.645
			c-0.18-0.188-0.355-0.371-0.534-0.559c-0.689,0.408-1.856,0.717-1.972,1.247c-0.285,1.339-0.093,2.772-0.093,4.171
			c0.324,0.024,0.65,0.047,0.979,0.073C404.134,454.932,404.672,453.289,405.209,451.645z"/>
		<path d="M46.588,360.768c-0.034-2.509-0.672-4.336-1.965-6.285c-1.756-2.646-2.952-5.723-4.023-8.744
			c-0.958-2.719-2.54-4.117-5.391-4.682c-2.114-0.42-4.094-1.564-6.099-2.461c-1.235-0.558-2.159-0.342-2.778,0.854
			c-1.273,2.462-5.028,2.445-7.319,1.326c-0.63-0.308-1.188-0.764-1.771-1.166c-2.63-1.83-3.898-5.545-2.822-8.563
			c0.217-0.609,0.793-1.414,1.334-1.533c2.628-0.58,5.333-1.396,7.945-1.211c1.217,0.088,2.657,2.078,3.324,3.519
			c0.805,1.729,1.808,2.788,3.571,3.392c2.328,0.801,4.594,1.771,6.886,2.67c0.22-0.183,0.438-0.363,0.656-0.546
			c-0.756-1.177-1.599-2.309-2.234-3.545c-0.566-1.103-0.832-2.354-1.364-3.479c-0.339-0.717-0.97-1.904-1.388-1.873
			c-3.28,0.263-5.104-2.076-7.313-3.766c-4.953-3.781-9.895-7.546-12.946-13.216c-2.574-4.78-5.371-9.442-7.888-14.253
			c-0.402-0.771-0.176-2.283,0.365-2.99c0.366-0.478,2.092-0.539,2.7-0.093c3.468,2.56,6.792,5.312,10.149,8.021
			c2.843,2.293,5.664,4.613,8.903,7.254c0-1.051,0.086-1.451-0.014-1.803c-1.805-6.514,0.1-12.756,1.373-19.045
			c0.9-4.428,1.922-8.834,2.729-13.281c0.393-2.172,1.505-2.484,3.455-1.896c-0.258,5.485,2.521,10.149,3.838,15.205
			c0.978,3.761,1.502,7.676,1.851,11.555c0.294,3.291,0.471,6.704-0.092,9.925c-0.594,3.434-2.165,6.688-3.206,10.058
			c-0.285,0.911-0.455,2.004-0.237,2.905c0.97,4.013,1.918,8.043,3.216,11.951c1.401,4.228,3.163,8.332,4.825,12.467
			c0.184,0.451,0.745,0.746,1.434,1.404c0.447-3.412,0.932-6.47,1.174-9.545c0.045-0.572-0.869-1.234-1.37-1.83
			c-1.265-1.507-2.116-3.014-0.353-4.765c0.292-0.294,0.401-0.813,0.504-1.248c0.893-3.806,4.063-6.185,7.838-5.429
			c1.204,0.24,2.531,1.388,3.205,2.486c2.878,4.699,1.676,10.864-4.34,11.887c-1.557,0.266-2.135,1.133-2.105,2.793
			c0.074,4.268-0.046,8.535-0.146,12.803c-0.032,1.525-0.729,3.236-0.252,4.539c2.172,5.913,4.634,11.724,7.045,17.551
			c0.723,1.74,1.629,3.405,2.451,5.109c0.314-0.098,0.628-0.188,0.944-0.284c-0.188-1.539-0.216-3.112-0.586-4.603
			c-1.615-6.5-1.963-12.98-0.529-19.588c0.558-2.561,0.253-5.294,0.602-7.916c0.128-0.97,0.812-2.209,1.604-2.613
			c0.529-0.269,2.025,0.494,2.53,1.191c5.501,7.631,8.305,16.025,6.993,25.555c-0.855,6.217-1.687,12.441-2.288,18.683
			c-0.121,1.252,0.662,2.71,1.34,3.891c1.25,2.173,2.662,4.261,4.127,6.296c2.313,3.209,4.99,6.178,7.028,9.545
			c3.665,6.051,7.985,11.521,12.975,16.511c1.158,1.154,2.318,2.386,3.146,3.777c0.385,0.65-0.02,1.769-0.065,2.669
			c-0.798-0.229-1.935-0.204-2.337-0.735c-5.263-6.904-12.159-12.54-16.025-20.541c-0.435-0.894-1.238-1.621-1.917-2.392
			c-2.079-2.354-4.142-4.729-6.297-7.013c-0.822-0.868-1.546-1.774-2.968-0.147c-1.051,1.203-3.059,1.93-4.73,2.147
			c-5.644,0.736-10.745-0.909-15.088-4.555c-4.6-3.86-9.065-7.886-13.569-11.863c-1.363-1.207-2.214-2.573-0.619-4.235
			c1.455-1.513,2.616-0.385,3.967,0.328c1.555,0.82,3.31,1.26,4.937,1.959c2.863,1.226,5.604,2.856,8.571,3.711
			c3.688,1.063,7.554,1.51,11.342,2.221c0.171-0.172,0.345-0.35,0.518-0.521c-1.759-2.695-3.568-5.361-5.263-8.098
			c-1.428-2.299-2.693-4.695-4.105-7.005c-0.26-0.427-0.829-0.718-1.313-0.953c-1.651-0.789-3.527-1.259-4.954-2.333
			c-3.698-2.779-7.337-5.669-10.733-8.807c-2.688-2.485-5.021-5.373-7.439-8.145c-1.485-1.706-2.793-3.57-4.267-5.29
			c-0.957-1.116-1.713-2.319-0.601-3.55c0.486-0.535,2.102-0.904,2.471-0.561c4.557,4.239,10.308,6.276,15.775,8.842
			C44.243,359.307,45.281,360.014,46.588,360.768z M66.111,388.501c0.203-0.662,0.41-1.149,0.494-1.66
			c0.438-2.549,0.853-5.104,1.262-7.659c0.982-6.148,1.832-12.315-0.813-18.289c-1.114-2.52-2.42-4.949-3.834-7.816
			C59.865,360.037,61.723,380.773,66.111,388.501z M33.865,317.84c3.556-11.459,4.023-22.795-1.047-33.918
			C29.207,295.355,28.691,306.691,33.865,317.84z M30.972,322.718c-0.539-4.702-2.461-8.385-5.687-11.313
			c-3.071-2.79-6.333-5.375-9.515-8.043c-0.814-0.688-1.651-1.336-2.478-2.002c-0.183,0.182-0.362,0.361-0.545,0.547
			C16.461,310.669,22.06,317.85,30.972,322.718z M45.355,394.693c6.543,5.697,12.67,11.244,22.176,9.024
			c-1.384-2.544-3.418-3.907-5.978-4.604C56.321,397.695,51.093,396.26,45.355,394.693z M35.058,358.602
			c3.254,5.666,8.334,8.146,12.964,11.178C46.351,363.204,41.174,360.816,35.058,358.602z M54.203,332.959
			c-0.287-1.005,0.063-3.088-2.256-3.207c-2.346-0.117-2.365,1.737-2.509,3.436c-0.161,1.871,0.883,2.992,2.479,3.053
			C53.417,336.293,54.459,335.221,54.203,332.959z M21.792,337.646c0.417-1.795,0.851-2.86,0.844-3.924
			c-0.003-0.709-0.467-1.806-1.017-2.037c-0.794-0.336-1.992-0.307-2.745,0.084c-0.431,0.224-0.708,1.744-0.386,2.219
			C19.402,335.332,20.664,336.438,21.792,337.646z"/>
	</g>
</g>
<g id="Layer_3">
	<g>
		<path stroke="#000000" stroke-miterlimit="10" d="M145.052,205.085c0.414,0,1.035,0.115,1.863,0.345
			c0.828,0.231,1.288,0.345,1.38,0.345l1.242,1.725l-0.414,0.966l-1.035,0.483c-1.289-0.506-2.208-0.851-2.76-1.035
			c-1.15-0.414-2.116-0.621-2.898-0.621c-3.45,0-6.924,2.461-10.419,7.383c-1.518,2.116-3.75,6.096-6.693,11.937l-1.794,3.519
			l-0.069,0.207c1.425,0,2.805-0.459,4.14-1.38c1.656-1.149,2.598-1.748,2.829-1.794c0.229,0,0.483,0.116,0.759,0.345
			c0.276,0.23,0.414,0.483,0.414,0.759c-0.783,1.564-2.38,2.496-4.795,2.794c-2.415,0.3-3.738,0.495-3.968,0.587l-0.138,0.138
			c-0.875,1.473-1.703,2.864-2.484,4.175c-0.783,1.311-1.749,2.818-2.898,4.52c1.518,1.196,2.277,2.737,2.277,4.623
			c0,2.163-0.783,3.864-2.346,5.106c-1.564,1.242-3.45,1.863-5.658,1.863h-9.384c-0.507-0.229-0.852-0.368-1.035-0.414l-0.414-0.966
			l1.656-1.311c2.714-0.276,5.083-1.265,7.107-2.967c1.656-1.38,3.312-3.473,4.968-6.279c-1.656-0.69-3.819-1.449-6.486-2.277
			c-1.794-0.552-3.128-0.966-4.002-1.242c-0.828,1.473-1.956,2.991-3.381,4.554c-1.104,1.104-1.909,1.909-2.415,2.415
			c0.459,0.046,0.862,0.081,1.208,0.104c0.345,0.023,0.609,0.034,0.793,0.034c0.92,0,1.76-0.069,2.519-0.207
			c0.759-0.138,1.69-0.345,2.794-0.621l0.414,0.966c-1.794,0.598-3.588,0.897-5.382,0.897c-1.104,0-2.208-0.069-3.312-0.207
			c-2.853,2.853-6.291,5.049-10.315,6.589c-4.026,1.541-8.131,2.312-12.317,2.312c-2.668,0-4.992-0.345-6.969-1.035
			c-2.668-0.92-4.278-2.438-4.83-4.554l0.483-1.311l1.173-0.483l1.173,0.414c1.701,2.301,3.231,3.83,4.588,4.588
			c1.356,0.759,3.438,1.139,6.245,1.139c3.357,0,6.772-0.759,10.247-2.277c3.473-1.518,6.151-3.564,8.038-6.141
			c-2.577-1.058-4.588-2.726-6.037-5.003c-1.449-2.277-2.174-4.864-2.174-7.762c0-7.176,3.473-13.362,10.419-18.561
			c6.44-4.83,13.362-7.245,20.769-7.245c2.392,0,4.232,0.138,5.52,0.414c2.024,0.46,3.564,1.357,4.623,2.691
			c0,0.276-0.138,0.552-0.414,0.828c-0.276,0.276-0.552,0.414-0.828,0.414c-1.013-0.184-2.703-0.725-5.072-1.622
			c-2.37-0.897-4.359-1.346-5.968-1.346c-6.9,0-12.996,2.691-18.285,8.073c-5.291,5.382-7.935,11.547-7.935,18.492
			c0,2.208,0.506,4.209,1.518,6.003c1.011,1.794,2.529,3.06,4.554,3.795c0.505-0.414,1.402-1.587,2.691-3.519
			c1.701-2.529,2.622-3.887,2.76-4.071l-2.139-1.242c-0.138-0.276-0.276-0.552-0.414-0.828c-0.276-0.552-0.414-0.851-0.414-0.897
			c0-1.058,0.518-1.759,1.552-2.104c1.035-0.345,2.288-0.518,3.761-0.518h1.104c3.909-6.439,6.531-10.511,7.866-12.213
			c3.956-5.06,7.659-7.59,11.109-7.59c0.321,0,0.632,0.046,0.931,0.138c0.299,0.093,0.518,0.162,0.656,0.207l0.552,0.897
			l-1.035,0.897c-0.599-0.091-1.208-0.183-1.829-0.276c-0.621-0.092-0.978-0.138-1.069-0.138c-2.76,0-6.119,3.635-10.074,10.902
			c-0.231,0.414-1.473,2.921-3.726,7.521c1.978,0,4.461,0.069,7.452,0.207c2.99,0.138,4.507,0.207,4.554,0.207
			c2.76-4.922,4.807-8.395,6.141-10.419c2.943-4.554,5.772-8.004,8.487-10.35C137.945,206.649,141.509,205.085,145.052,205.085z
			 M103.582,230.96h-0.345c-0.828,0-1.564,0.115-2.208,0.345c-0.645,0.231-0.966,0.714-0.966,1.449c0,0.369,0.126,0.679,0.38,0.931
			c0.252,0.253,0.609,0.495,1.069,0.725c0.183-0.183,0.528-0.735,1.035-1.656C102.869,232.157,103.214,231.559,103.582,230.96z
			 M107.171,231.236c-0.552,1.012-0.966,1.771-1.242,2.277c-0.46,0.875-0.897,1.611-1.311,2.208
			c3.357,0.921,5.129,1.404,5.313,1.449c2.07,0.645,3.771,1.311,5.106,2.001c1.38-2.3,2.736-4.784,4.071-7.452
			c-1.38,0-2.875-0.045-4.485-0.138C110.62,231.352,108.136,231.236,107.171,231.236z M106.274,249.797
			c0.597,0,1.598,0.093,3.001,0.276c1.402,0.185,2.312,0.276,2.725,0.276c1.702,0,3.174-0.483,4.416-1.449
			c1.242-0.966,1.863-2.277,1.863-3.933c0-1.38-0.599-2.529-1.794-3.45c-1.979,2.301-3.497,3.888-4.554,4.761
			C110.321,247.658,108.435,248.831,106.274,249.797z"/>
		<path stroke="#000000" stroke-miterlimit="10" d="M134.77,252.35c-0.966,0-1.449-0.437-1.449-1.311
			c0-0.644,0.252-1.472,0.759-2.484c0.092-0.229,0.345-0.712,0.759-1.449c-1.426,1.426-2.691,2.53-3.795,3.312
			c-1.749,1.242-3.29,1.863-4.623,1.863c-1.611,0-2.415-0.804-2.415-2.415c0-0.966,0.69-2.622,2.07-4.968
			c1.748-2.99,3.519-6.003,5.313-9.039l-0.483-0.483c-0.46,0-0.921,0.138-1.38,0.414c-0.46,0.276-1.335,0.897-2.622,1.863
			l-0.345-0.828c0.874-0.782,1.886-1.541,3.036-2.277c1.472-0.92,2.622-1.38,3.45-1.38c0.414,0,0.781,0.115,1.104,0.345
			c0.321,0.231,0.483,0.552,0.483,0.966c0,0.875-1.289,3.312-3.864,7.314c-2.577,4.002-3.864,6.44-3.864,7.314l0.345,0.759
			l0.828,0.345c1.932,0,4.53-1.955,7.797-5.865c3.036-3.633,4.853-6.462,5.451-8.487l-0.414-0.552c-0.322,0-0.966,0.322-1.932,0.966
			c-0.783,0.506-1.404,0.943-1.863,1.311l-0.483-0.759c1.011-0.966,2.001-1.748,2.967-2.346c1.425-0.873,2.599-1.311,3.519-1.311
			c1.011,0,1.518,0.438,1.518,1.311c0,0.783-1.334,3.312-4.002,7.59c-2.668,4.278-4.002,6.67-4.002,7.176
			c0,0.46,0.207,0.69,0.621,0.69c0.368,0,0.897-0.229,1.587-0.69c0.368-0.276,1.287-1.011,2.76-2.208l0.483,0.828
			c-1.059,1.059-2.186,2.001-3.381,2.829C137.093,251.798,135.782,252.35,134.77,252.35z"/>
		<path stroke="#000000" stroke-miterlimit="10" d="M160.852,230.96l0.276-0.759l0.828-0.345c0.506,0,0.92,0.23,1.242,0.69
			c0.321,0.46,0.483,0.943,0.483,1.449c0,1.197-0.483,2.186-1.449,2.967c-0.966,0.783-2.094,1.173-3.381,1.173
			c-0.506,0-1.266-0.092-2.277-0.276c-1.012-0.184-1.749-0.276-2.208-0.276c-1.242,0-1.863,0.552-1.863,1.656
			c0,0.322,0.988,1.909,2.967,4.761c0.966,1.38,1.449,2.691,1.449,3.933c0,1.932-0.771,3.554-2.312,4.865
			c-1.542,1.311-3.301,1.966-5.279,1.966c-1.564,0-2.932-0.414-4.105-1.242c-1.173-0.828-1.759-2.024-1.759-3.588
			c0-1.242,0.391-2.253,1.173-3.036c0.782-0.782,1.794-1.173,3.036-1.173c0.782,0,1.459,0.219,2.035,0.656
			c0.575,0.438,0.863,1.047,0.863,1.828c0,0.599-0.172,1.104-0.518,1.518s-0.817,0.621-1.415,0.621l-0.897-0.414l-0.414-0.897
			c0-0.183,0.057-0.425,0.173-0.725c0.114-0.298,0.172-0.494,0.172-0.586c-0.185-0.321-0.414-0.483-0.69-0.483
			c-0.645,0-1.197,0.276-1.656,0.828c-0.46,0.552-0.69,1.173-0.69,1.863c0,1.104,0.471,1.979,1.415,2.622
			c0.942,0.645,1.989,0.966,3.14,0.966c1.38,0,2.541-0.425,3.484-1.277c0.942-0.851,1.415-1.943,1.415-3.277
			c0-1.011-0.552-2.346-1.656-4.002c-1.104-1.656-1.656-2.99-1.656-4.002c0-1.472,0.563-2.726,1.69-3.761
			c1.126-1.035,2.472-1.552,4.037-1.552c0.597,0,1.391,0.058,2.38,0.172c0.989,0.115,1.553,0.172,1.69,0.172
			c1.149,0,1.817-0.505,2.001-1.518c-0.507-0.091-0.92-0.252-1.242-0.483C161.012,231.766,160.852,231.42,160.852,230.96z"/>
		<path stroke="#000000" stroke-miterlimit="10" d="M174.238,235.997c1.196-0.873,2.184-1.518,2.967-1.932
			c1.242-0.644,2.368-0.966,3.381-0.966c1.058,0,1.932,0.392,2.622,1.173c0.69,0.783,1.035,1.725,1.035,2.829
			c0,4.048-2.231,7.683-6.693,10.902c-4.14,2.991-8.349,4.485-12.627,4.485c-1.656,0-3.083-0.138-4.278-0.414
			c-2.07-0.459-3.105-1.242-3.105-2.346l0.345-0.897l0.966-0.345c0.736,0.184,1.449,0.369,2.139,0.552
			c2.115,0,4.737-3.288,7.866-9.867c4.554-9.614,7.75-15.732,9.591-18.354c4.646-6.624,9.867-9.936,15.663-9.936
			c1.242,0,2.3,0.162,3.174,0.483c0.874,0.322,1.495,0.966,1.863,1.932l-0.414,1.035l-0.966,0.414
			c-0.46-0.138-1.495-0.575-3.105-1.311c-1.196-0.552-2.3-0.828-3.312-0.828c-3.082,0-6.372,2.737-9.867,8.211
			c-3.083,5.52-6.141,11.017-9.177,16.491c-3.726,6.579-7.038,10.695-9.936,12.351c1.748,0.828,3.611,1.242,5.589,1.242
			c2.989,0,5.853-1.368,8.59-4.105c2.736-2.736,4.105-5.6,4.105-8.591c0-0.276-0.046-0.54-0.138-0.793
			c-0.092-0.252-0.253-0.655-0.483-1.208l-1.725-0.759c-1.242,0.276-2.415,0.69-3.519,1.242L174.238,235.997z"/>
		<path stroke="#000000" stroke-miterlimit="10" d="M199.008,249.383c0,0.507,0.207,0.759,0.621,0.759
			c0.414,0,1.127-0.368,2.139-1.104c0.735-0.552,1.38-1.104,1.932-1.656l0.483,0.828c-0.966,0.966-2.07,1.863-3.312,2.691
			c-1.611,1.059-2.898,1.587-3.864,1.587c-1.104,0-1.656-0.459-1.656-1.38c0-0.459,0.092-0.932,0.276-1.415
			c0.184-0.483,0.437-1.07,0.759-1.76c-1.15,1.15-2.301,2.117-3.45,2.898c-1.564,1.059-2.967,1.587-4.209,1.587
			c-1.059,0-1.887-0.323-2.484-0.966c-0.599-0.644-0.897-1.518-0.897-2.622c0-3.633,2.093-7.187,6.279-10.66
			c4.186-3.473,8.119-5.209,11.799-5.209c1.011,0,2.046,0.149,3.105,0.448c1.058,0.3,1.587,0.817,1.587,1.553l-0.414,0.828
			l-0.897,0.345c-0.093,0-1.104-0.321-3.036-0.966c-0.966-0.321-1.794-0.483-2.484-0.483c-2.668,0-5.406,1.449-8.211,4.347
			c-2.807,2.898-4.209,5.705-4.209,8.418c0,0.645,0.172,1.197,0.518,1.656c0.345,0.46,0.838,0.69,1.483,0.69
			c1.977,0,4.301-1.61,6.969-4.83c1.794-2.162,3.496-4.668,5.106-7.521h2.691c-1.15,1.84-2.254,3.681-3.312,5.52
			C200.112,246.692,199.008,248.831,199.008,249.383z"/>
		<path stroke="#000000" stroke-miterlimit="10" d="M206.321,252.074c2.713-3.956,4.991-7.475,6.831-10.557
			c1.656-2.805,2.598-4.623,2.829-5.451l-0.414-0.483c-0.414,0-0.932,0.196-1.553,0.587c-0.621,0.391-1.53,1.093-2.726,2.104
			l-0.483-0.759c0.966-0.919,2.046-1.77,3.243-2.553c1.609-1.058,2.852-1.587,3.726-1.587c0.966,0,1.449,0.438,1.449,1.311
			c0,0.69-0.184,1.404-0.552,2.139c-0.093,0.185-0.483,0.828-1.173,1.932c1.748-1.656,3.312-2.921,4.692-3.795
			c1.977-1.242,3.864-1.863,5.658-1.863c0.966,0,1.782,0.288,2.45,0.863c0.666,0.576,1,1.345,1,2.312
			c0,1.656-1.806,3.991-5.417,7.003c-3.612,3.013-5.417,5.187-5.417,6.521c0,0.645,0.299,0.966,0.897,0.966
			c0.459,0,1.149-0.138,2.07-0.414c0.92-0.276,1.61-0.414,2.07-0.414c0.229,0,0.575,0.093,1.035,0.276l0.345,0.828l-0.414,0.966
			c-0.322,0.229-0.667,0.345-1.035,0.345c-1.288,0-2.91-0.034-4.864-0.104c-1.956-0.069-3.025-0.15-3.208-0.241l-0.276-0.828
			c0-1.287,1.782-3.507,5.347-6.659c3.564-3.15,5.348-5.531,5.348-7.141c0-0.598-0.219-1.092-0.655-1.484
			c-0.438-0.39-0.978-0.586-1.622-0.586c-3.358,0-7.107,3.105-11.247,9.315c-0.46,0.69-1.956,3.174-4.485,7.452H206.321z"/>
		<path stroke="#000000" stroke-miterlimit="10" d="M250.895,248.21c-0.966,0.874-2.116,1.749-3.45,2.622
			c-1.703,1.104-2.991,1.656-3.864,1.656c-1.059,0-1.587-0.528-1.587-1.587c0-0.414,0.092-0.863,0.276-1.346
			c0.184-0.483,0.437-1.069,0.759-1.759c-1.335,1.334-2.622,2.37-3.864,3.105c-1.61,0.966-3.151,1.449-4.623,1.449
			c-1.059,0-1.932-0.345-2.622-1.035c-0.69-0.69-1.035-1.587-1.035-2.691c0-3.174,1.977-6.531,5.934-10.074
			c3.956-3.542,7.566-5.313,10.833-5.313c0.644,0,1.195,0.093,1.656,0.276c0.459,0.185,0.69,0.552,0.69,1.104l-0.345,0.828
			l-0.897,0.345c-1.104-0.229-2.208-0.483-3.312-0.759c-2.208,0-4.589,1.461-7.142,4.381c-2.553,2.922-3.83,5.486-3.83,7.694
			c0,0.138,0.08,0.426,0.242,0.862c0.161,0.438,0.311,0.817,0.448,1.139c0.506,0.23,0.851,0.391,1.035,0.483
			c0.183,0.093,0.39,0.207,0.621,0.345c3.081,0,6.785-3.334,11.109-10.005c3.817-6.164,7.659-12.351,11.523-18.561
			c4.691-6.669,9.084-10.005,13.179-10.005c0.966,0,1.747,0.15,2.346,0.448c0.597,0.3,1.011,0.886,1.242,1.76l-0.414,0.966
			l-0.966,0.414c-0.461-0.092-1.174-0.425-2.139-1c-0.967-0.575-1.771-0.862-2.416-0.862c-1.887,0-4.945,3.082-9.177,9.246
			c-3.312,4.83-6.786,10.581-10.419,17.25c-3.174,5.796-4.854,9.063-5.037,9.798l0.552,0.621c0.644-0.276,1.333-0.632,2.07-1.07
			c0.735-0.437,1.472-0.931,2.208-1.483L250.895,248.21z"/>
		<path stroke="#000000" stroke-miterlimit="10" d="M295.606,231.305c1.886,0,3.357,0.552,4.416,1.656
			c1.058,1.104,1.587,2.622,1.587,4.554c0,1.794-0.438,3.565-1.312,5.313c-0.873,1.749-2.023,3.358-3.449,4.83
			c0.689,0.736,1.483,1.357,2.381,1.863c0.896,0.507,1.805,0.759,2.725,0.759c1.149,0,2.277-0.449,3.381-1.346
			c1.104-0.897,2.023-1.92,2.76-3.07l0.691,0.552c-0.736,1.656-1.898,3.105-3.485,4.347s-3.231,1.863-4.933,1.863
			c-1.104,0-2.105-0.253-3.002-0.759c-0.897-0.505-1.783-1.218-2.656-2.139l-0.139-0.138c-1.334,0.828-2.438,1.449-3.313,1.863
			c-2.714,1.288-5.061,1.932-7.037,1.932c-2.668,0-4.899-0.817-6.693-2.45s-2.691-3.783-2.691-6.451
			c0-3.357,1.494-6.531,4.485-9.522c2.161-2.115,5.151-4.209,8.97-6.279c0.506-3.357,1.473-6.095,2.898-8.211
			c1.886-2.805,4.323-4.209,7.314-4.209c0.965,0,1.781,0.231,2.449,0.69c0.666,0.46,1,1.15,1,2.07c0,2.3-2,4.6-6.002,6.9
			c-2.484,1.242-4.141,2.07-4.969,2.484l-0.068,2.001l0.068,1.932C292.454,231.65,293.994,231.305,295.606,231.305z
			 M278.424,242.966c0,2.301,0.805,4.232,2.416,5.796c1.609,1.564,3.541,2.346,5.795,2.346c2.529,0,4.922-0.759,7.177-2.277
			c-1.473-1.748-2.681-3.749-3.622-6.003c-0.943-2.253-1.553-4.623-1.829-7.107c-1.749,1.887-2.622,3.979-2.622,6.279
			c0,1.242,0.299,2.531,0.896,3.864l-0.827,0.414c-0.736-1.196-1.104-2.553-1.104-4.071c0-3.174,1.174-5.818,3.52-7.935
			c-0.047-0.184-0.069-0.518-0.069-1.001c0-0.483,0-0.885,0-1.207v-2.208c-2.806,1.61-5.015,3.381-6.624,5.313
			C279.459,237.653,278.424,240.252,278.424,242.966z M299.332,219.299c0-0.506-0.207-0.92-0.621-1.242
			c-0.414-0.321-0.875-0.483-1.381-0.483c-1.793,0-3.289,1.173-4.484,3.519c-0.967,1.887-1.542,3.888-1.725,6.003
			c2.115-1.058,3.795-2.093,5.037-3.105C298.274,222.335,299.332,220.772,299.332,219.299z M299.469,239.171
			c0-1.748-0.459-3.208-1.379-4.382c-0.921-1.173-2.232-1.759-3.934-1.759c-0.966,0-1.979,0.23-3.035,0.69
			c0.459,2.715,1.011,5.014,1.655,6.9c0.828,2.301,1.933,4.371,3.312,6.21c0.967-1.011,1.771-2.23,2.416-3.657
			C299.147,241.748,299.469,240.413,299.469,239.171z"/>
		<path stroke="#000000" stroke-miterlimit="10" d="M341.766,249.866l1.794,0.138c5.335,0,10.972-1.541,16.905-4.623
			c4.6-2.392,9.498-5.75,14.697-10.074c1.701-7.038,3.312-12.075,4.83-15.111c2.989-5.934,6.945-8.901,11.867-8.901
			c1.334,0,2.346,0.576,3.036,1.725l-0.345,0.759c-0.23,0.184-0.553,0.276-0.967,0.276s-1.093-0.126-2.035-0.379
			c-0.943-0.252-1.507-0.379-1.69-0.379c-1.887,0-3.496,0.713-4.829,2.139c-1.75,1.84-3.037,4.669-3.865,8.487l-1.311,6.21
			l-0.207,0.759c1.381,0.093,2.875-1.609,4.485-5.106c1.472-3.219,2.208-5.727,2.208-7.521l1.311-1.587l1.035,0.483
			c0.092,0.46,0.207,0.921,0.346,1.38c0,2.577-1.336,5.313-4.002,8.211c-3.635,3.911-5.637,6.21-6.004,6.9
			c-1.518,3.128-3.014,6.256-4.484,9.384c-1.933,3.312-4.623,5.52-8.073,6.624c0.505,0.093,0.988,0.162,1.448,0.207
			c0.46,0.046,0.989,0.069,1.588,0.069c8.049,0,15.604-3.288,22.666-9.867c7.061-6.578,10.592-13.869,10.592-21.873
			c0-3.174-0.771-5.646-2.312-7.417c-1.542-1.771-3.691-2.657-6.452-2.657c-1.104,0-2.276,0.138-3.519,0.414l-0.069-1.104
			c0.828-0.414,1.771-0.735,2.83-0.966c1.057-0.23,2.069-0.345,3.035-0.345c2.943,0,5.289,1.047,7.038,3.14
			c1.747,2.094,2.622,4.657,2.622,7.693c0,8.603-4.416,16.698-13.248,24.288c-8.465,7.269-16.998,10.902-25.6,10.902
			c-1.793,0-3.128-0.091-4.002-0.276c-1.609-0.321-2.69-1.035-3.242-2.139l0.414-0.759c0.321-0.183,0.666-0.276,1.035-0.276
			c0.275,0,0.689,0.069,1.242,0.207c0.551,0.138,0.988,0.207,1.311,0.207c1.794,0,3.541-0.69,5.244-2.07
			c1.426-1.149,2.621-2.622,3.588-4.416c0.367-0.644,0.689-1.356,0.966-2.139c0.276-0.782,0.552-1.656,0.828-2.622l0.069-0.207
			l-1.795,1.449c-4.784,3.864-9.775,6.924-14.973,9.177c-5.842,2.53-11.523,3.795-17.043,3.795c-2.254,0-3.842-0.092-4.761-0.276
			c-1.933-0.368-3.221-1.173-3.864-2.415l0.414-0.897l1.035-0.414c0.459,0.093,1.276,0.311,2.449,0.655
			c1.174,0.345,2.081,0.518,2.726,0.518c3.22,0,6.233-1.287,9.039-3.864c0.69-0.644,2.093-2.139,4.209-4.485
			c-2.991-0.459-5.497-1.932-7.521-4.416c-2.025-2.484-3.037-5.244-3.037-8.28c0-6.302,2.943-11.592,8.832-15.87
			c5.383-3.909,11.34-5.865,17.871-5.865c2.438,0,4.37,0.138,5.797,0.414c2.575,0.506,4.116,1.403,4.623,2.691l-1.312,1.173
			c-0.645-0.045-3.013-0.666-7.106-1.863c-1.749-0.506-3.313-0.759-4.692-0.759c-5.751,0-10.673,1.887-14.767,5.658
			c-4.094,3.772-6.141,8.511-6.141,14.214c0,2.715,0.748,5.152,2.242,7.314c1.494,2.163,3.508,3.565,6.038,4.209
			c2.438-7.819,4.599-13.524,6.485-17.112c3.91-7.452,8.257-11.178,13.041-11.178c0.276,0,0.633,0.059,1.07,0.173
			c0.437,0.115,0.793,0.196,1.069,0.241l0.759,1.104c-0.093,0.69-0.482,1.035-1.173,1.035c-1.196-0.184-2.393-0.39-3.588-0.621
			c-2.53,0-4.761,1.818-6.692,5.451c-1.197,2.208-2.6,5.946-4.21,11.212c-1.61,5.268-2.875,8.59-3.795,9.97
			c4.002,0,7.222-1.587,9.66-4.761c2.253-2.943,3.381-6.462,3.381-10.557c0-0.828-0.069-1.656-0.207-2.484l0.966-0.276
			c0.139,0.598,0.242,1.185,0.311,1.759c0.069,0.576,0.104,1.139,0.104,1.69c0,4.416-1.438,8.166-4.313,11.247
			c-2.875,3.083-6.498,4.623-10.867,4.623c-1.656,2.163-3.565,4.002-5.727,5.52C346.688,248.256,344.25,249.36,341.766,249.866z"/>
		<path stroke="#000000" stroke-miterlimit="10" d="M398.621,252.35c-1.104,0-1.656-0.505-1.656-1.518
			c0-0.828,0.735-2.506,2.208-5.037c1.978-3.312,3.978-6.624,6.003-9.936c-0.047-0.092-0.115-0.173-0.207-0.242
			c-0.093-0.069-0.162-0.126-0.207-0.172c-0.507,0-1.254,0.322-2.242,0.966c-0.99,0.645-1.737,1.197-2.242,1.656l-0.414-0.828
			c1.425-1.104,2.529-1.908,3.312-2.415c1.61-1.011,2.852-1.518,3.726-1.518c1.012,0,1.519,0.483,1.519,1.449
			c0,0.828-1.346,3.358-4.036,7.59c-2.691,4.233-4.037,6.602-4.037,7.107c0,0.322,0.184,0.483,0.553,0.483
			c0.551,0,1.333-0.368,2.346-1.104c0.459-0.321,1.148-0.873,2.07-1.656l0.414,0.828c-1.15,1.059-2.255,1.956-3.313,2.691
			C400.852,251.798,399.587,252.35,398.621,252.35z M413.112,221.507c0.873,0,1.311,0.46,1.311,1.38c0,0.598-0.219,1.162-0.656,1.69
			c-0.438,0.529-0.931,0.793-1.482,0.793c-0.875,0-1.312-0.459-1.312-1.38c0-0.644,0.195-1.218,0.587-1.725
			C411.949,221.761,412.467,221.507,413.112,221.507z"/>
		<path stroke="#000000" stroke-miterlimit="10" d="M415.526,237.515c0-1.333,0.424-2.242,1.275-2.726
			c0.852-0.483,1.99-0.724,3.416-0.724c0.598,0,1.127,0.012,1.587,0.034c0.46,0.024,0.851,0.035,1.173,0.035l0.069-0.207l2.14-4.071
			c1.655-3.128,3.266-5.819,4.829-8.073c2.253-3.174,4.554-5.681,6.9-7.521c2.852-2.208,5.728-3.312,8.625-3.312
			c1.38,0,2.334,0.162,2.863,0.483c0.528,0.322,0.794,0.806,0.794,1.449c-0.047,0.093-0.069,0.162-0.069,0.207
			c-0.138,0.23-0.253,0.438-0.345,0.621l-1.035,0.345c-0.507-0.045-1.254-0.299-2.242-0.759c-0.99-0.459-1.76-0.69-2.313-0.69
			c-3.404,0-6.899,2.875-10.487,8.625c-0.46,0.736-2.691,5.106-6.693,13.11c0.229,0.093,0.518,0.138,0.862,0.138
			c0.346,0,0.679,0,1.001,0c0.69,0,1.321-0.207,1.897-0.621c0.574-0.414,0.885-0.966,0.932-1.656l1.242-1.104l1.172,1.311
			l-1.172,2.277c-0.645,0.276-1.323,0.46-2.036,0.552c-0.714,0.093-1.438,0.138-2.173,0.138h-2.209
			c-0.184,0.414-1.287,2.553-3.312,6.417c-2.392,4.6-3.588,8.373-3.588,11.316c0,5.796-1.357,10.648-4.071,14.559
			c-3.129,4.508-7.475,6.762-13.041,6.762c-1.195,0-2.253-0.161-3.174-0.482c-0.92-0.322-1.563-0.943-1.932-1.863l0.345-0.828
			l0.897-0.345l2.897,1.173c2.897-1.61,6.072-5.428,9.522-11.453c1.885-3.268,4.186-7.913,6.899-13.938
			c-0.413-2.024-0.714-3.542-0.897-4.554C415.708,240.206,415.526,238.666,415.526,237.515z M402.553,272.223l1.38,0.068
			c4.462,0,7.935-2.254,10.419-6.762c2.023-3.681,3.036-7.959,3.036-12.834c-1.38,3.174-3.496,6.669-6.348,10.488
			C408.004,267.23,405.175,270.244,402.553,272.223z M422.494,235.169l-1.104-0.069c-1.38,0-2.427,0.426-3.14,1.277
			c-0.713,0.852-1.069,1.99-1.069,3.415c0,0.783,0.046,1.496,0.138,2.139c0.092,0.645,0.276,1.633,0.553,2.967
			C419.434,241.31,420.977,238.067,422.494,235.169z"/>
		<path stroke="#000000" stroke-miterlimit="10" d="M445.471,247.175c-1.335,1.334-2.76,2.484-4.278,3.45
			c-1.932,1.242-3.634,1.863-5.106,1.863c-1.196,0-2.162-0.414-2.897-1.242c-0.736-0.828-1.104-1.839-1.104-3.036
			c0-3.036,1.691-6.29,5.072-9.764c3.381-3.473,6.565-5.209,9.557-5.209c0.734,0,1.334,0.15,1.793,0.448
			c0.46,0.3,0.69,0.793,0.69,1.484c0,1.749-1.771,3.611-5.313,5.589c-2.621,1.473-5.268,2.577-7.934,3.312
			c-0.323,0.966-0.484,1.794-0.484,2.484c0,0.875,0.242,1.622,0.725,2.243c0.483,0.621,1.139,0.931,1.967,0.931
			c1.104,0,2.369-0.414,3.795-1.242c0.736-0.414,1.84-1.196,3.313-2.346L445.471,247.175z M445.953,236.066
			c0-0.735-0.414-1.104-1.242-1.104c-1.379,0-2.967,0.966-4.76,2.898c-1.428,1.564-2.577,3.174-3.451,4.83
			c1.887-0.598,3.749-1.425,5.59-2.484C444.665,238.734,445.953,237.354,445.953,236.066z"/>
	</g>
	<g>
		<path stroke="#000000" stroke-miterlimit="10" d="M168.706,341.701c2.066-3.968,4.836-8.328,8.308-13.082
			c3.1-4.133,6.2-8.266,9.3-12.4c-1.736,1.158-3.596,2.295-5.58,3.41c-1.984,1.116-3.906,2.067-5.766,2.852l-0.434-1.426
			c2.066-0.66,4.422-1.756,7.068-3.285c3.72-2.148,5.993-3.41,6.82-3.782c0.413,0,0.62,0.187,0.62,0.558
			c-0.083,0.29-0.827,1.364-2.232,3.225c-0.91,1.199-1.798,2.377-2.666,3.533c-2.108,3.143-4.154,6.49-6.138,10.045
			c-1.695,3.018-3.514,6.469-5.456,10.354H168.706z"/>
		<path stroke="#000000" stroke-miterlimit="10" d="M195.117,314.917c0.826,0.496,1.694,0.899,2.604,1.209
			c0.909,0.31,1.798,0.466,2.666,0.466c2.314,0,4.298-0.766,5.952-2.295l0.682,0.496c-1.034,1.406-2.222,2.48-3.565,3.225
			c-1.344,0.744-2.842,1.115-4.495,1.115c-1.488,0-2.997-0.33-4.526-0.992l-5.704,8.619c0.909-0.537,1.746-0.931,2.511-1.179
			c0.764-0.248,1.601-0.372,2.511-0.372c1.529,0,2.8,0.465,3.813,1.395c1.013,0.931,1.519,2.14,1.519,3.627
			c0,2.895-1.313,5.57-3.937,8.029c-2.625,2.46-5.384,3.689-8.277,3.689c-1.654,0-3.059-0.351-4.216-1.055
			c-1.364-0.826-2.046-2.023-2.046-3.596c0-1.074,0.394-1.984,1.178-2.728c0.785-0.744,1.736-1.116,2.852-1.116
			c1.405,0,2.252,0.6,2.542,1.798l-0.372,1.054l-0.93,0.435c-0.207,0-0.558-0.062-1.054-0.187c-0.496-0.123-0.868-0.186-1.116-0.186
			l-1.302,0.434l-0.496,1.055c0,0.909,0.516,1.653,1.55,2.232c1.033,0.578,2.046,0.867,3.038,0.867c2.232,0,4.288-1.023,6.169-3.068
			c1.88-2.047,2.821-4.206,2.821-6.479c0-1.198-0.383-2.159-1.147-2.883c-0.766-0.723-1.747-1.085-2.945-1.085
			c-0.703,0-1.395,0.114-2.077,0.341c-0.682,0.228-1.395,0.568-2.139,1.022l-0.682-0.434L195.117,314.917z"/>
		<path stroke="#000000" stroke-miterlimit="10" d="M206.153,337.98c0.868,0,1.302,0.456,1.302,1.365
			c0,0.661-0.217,1.271-0.651,1.828c-0.434,0.559-0.982,0.838-1.643,0.838c-0.868,0-1.302-0.455-1.302-1.365
			c0-0.619,0.227-1.218,0.682-1.797C204.995,338.271,205.532,337.98,206.153,337.98z"/>
		<path stroke="#000000" stroke-miterlimit="10" d="M232.192,318.451l0.372-0.807l0.868-0.371c0.992,0.248,1.736,0.796,2.232,1.643
			c0.496,0.848,0.744,1.829,0.744,2.945c0,3.886-1.984,8.184-5.952,12.896c-4.133,4.877-8.081,7.315-11.842,7.315
			c-1.86,0-3.379-0.526-4.557-1.581c-1.178-1.055-1.767-2.512-1.767-4.371c0-4.547,2.5-9.279,7.502-14.197
			c5-4.919,9.774-7.379,14.322-7.379c1.198,0,2.232,0.146,3.1,0.434c1.322,0.456,1.984,1.158,1.984,2.109l-0.31,0.743l-0.682,0.31
			c-0.372-0.082-1.075-0.496-2.108-1.239c-1.034-0.744-2.149-1.116-3.348-1.116c-3.68,0-7.461,2.418-11.346,7.254
			c-3.72,4.63-5.58,8.846-5.58,12.648c0,1.447,0.31,2.614,0.93,3.502c0.62,0.891,1.632,1.334,3.038,1.334
			c3.141,0,6.406-2.148,9.796-6.448c3.265-4.133,4.898-7.833,4.898-11.099c0-1.156-0.332-2.086-0.992-2.789
			C232.708,319.361,232.274,318.783,232.192,318.451z"/>
		<path stroke="#000000" stroke-miterlimit="10" d="M252.094,336.493c-0.538,1.447-1.219,2.666-2.046,3.658
			c-1.075,1.281-2.273,1.922-3.596,1.922c-1.323,0-2.852-0.683-4.588-2.046c-1.736-1.364-2.914-2.047-3.534-2.047
			c-1.075,0-1.695,0.662-1.86,1.984c-0.166,1.324-0.558,1.984-1.178,1.984c-0.909,0-1.364-0.537-1.364-1.611
			c0-2.191,1.736-4.361,5.208-6.511c3.224-1.86,6.468-3.74,9.734-5.642c3.513-2.48,5.27-5.188,5.27-8.123
			c0-1.363-0.434-2.52-1.302-3.471c-0.868-0.951-2.005-1.427-3.41-1.427c-1.572,0-3.007,0.538-4.309,1.612
			c-1.302,1.075-1.953,2.377-1.953,3.906c0,0.826,0.372,1.363,1.116,1.611c0.744,0.166,1.488,0.311,2.232,0.434l0.434,0.869
			c-0.248,1.115-0.909,1.674-1.984,1.674c-0.951,0-1.736-0.352-2.356-1.055c-0.62-0.702-0.93-1.55-0.93-2.541
			c0-2.273,0.981-4.175,2.945-5.705c1.962-1.528,4.123-2.293,6.479-2.293c1.818,0,3.337,0.506,4.557,1.519
			c1.218,1.013,1.829,2.408,1.829,4.185c0,2.895-1.634,5.539-4.898,7.937c-1.158,0.868-4.34,2.646-9.548,5.332
			c-3.638,1.901-5.684,3.513-6.138,4.836c0.951-0.62,1.963-0.931,3.038-0.931c1.281,0,2.728,0.549,4.34,1.644
			c1.612,1.096,2.728,1.644,3.348,1.644c0.909,0,1.694-0.413,2.356-1.24c0.455-0.537,0.889-1.344,1.302-2.418L252.094,336.493z"/>
		<path stroke="#000000" stroke-miterlimit="10" d="M260.155,337.98c0.867,0,1.301,0.456,1.301,1.365
			c0,0.661-0.217,1.271-0.65,1.828c-0.434,0.559-0.982,0.838-1.643,0.838c-0.868,0-1.303-0.455-1.303-1.365
			c0-0.619,0.227-1.218,0.682-1.797C258.996,338.271,259.533,337.98,260.155,337.98z"/>
		<path stroke="#000000" stroke-miterlimit="10" d="M281.667,336.493c-0.538,1.447-1.22,2.666-2.046,3.658
			c-1.075,1.281-2.273,1.922-3.596,1.922c-1.323,0-2.852-0.683-4.588-2.046c-1.736-1.364-2.914-2.047-3.534-2.047
			c-1.075,0-1.695,0.662-1.86,1.984c-0.166,1.324-0.558,1.984-1.178,1.984c-0.908,0-1.363-0.537-1.363-1.611
			c0-2.191,1.735-4.361,5.207-6.511c3.225-1.86,6.469-3.74,9.734-5.642c3.513-2.48,5.27-5.188,5.27-8.123
			c0-1.363-0.434-2.52-1.302-3.471s-2.005-1.427-3.409-1.427c-1.572,0-3.008,0.538-4.31,1.612c-1.302,1.075-1.953,2.377-1.953,3.906
			c0,0.826,0.372,1.363,1.116,1.611c0.744,0.166,1.488,0.311,2.232,0.434l0.434,0.869c-0.248,1.115-0.91,1.674-1.984,1.674
			c-0.951,0-1.736-0.352-2.355-1.055c-0.621-0.702-0.93-1.55-0.93-2.541c0-2.273,0.98-4.175,2.944-5.705
			c1.962-1.528,4.123-2.293,6.479-2.293c1.818,0,3.337,0.506,4.557,1.519c1.219,1.013,1.828,2.408,1.828,4.185
			c0,2.895-1.633,5.539-4.897,7.937c-1.157,0.868-4.34,2.646-9.548,5.332c-3.638,1.901-5.684,3.513-6.139,4.836
			c0.951-0.62,1.963-0.931,3.039-0.931c1.28,0,2.728,0.549,4.34,1.644c1.611,1.096,2.728,1.644,3.348,1.644
			c0.908,0,1.694-0.413,2.355-1.24c0.455-0.537,0.889-1.344,1.303-2.418L281.667,336.493z"/>
		<path stroke="#000000" stroke-miterlimit="10" d="M305.413,318.451l0.372-0.807l0.867-0.371c0.992,0.248,1.736,0.796,2.232,1.643
			c0.496,0.848,0.744,1.829,0.744,2.945c0,3.886-1.984,8.184-5.952,12.896c-4.134,4.877-8.081,7.315-11.842,7.315
			c-1.86,0-3.379-0.526-4.558-1.581c-1.178-1.055-1.767-2.512-1.767-4.371c0-4.547,2.501-9.279,7.503-14.197
			c5-4.919,9.773-7.379,14.321-7.379c1.198,0,2.231,0.146,3.101,0.434c1.322,0.456,1.983,1.158,1.983,2.109l-0.31,0.743l-0.683,0.31
			c-0.372-0.082-1.075-0.496-2.108-1.239c-1.033-0.744-2.148-1.116-3.348-1.116c-3.68,0-7.461,2.418-11.346,7.254
			c-3.721,4.63-5.58,8.846-5.58,12.648c0,1.447,0.311,2.614,0.93,3.502c0.62,0.891,1.633,1.334,3.039,1.334
			c3.141,0,6.406-2.148,9.795-6.448c3.266-4.133,4.898-7.833,4.898-11.099c0-1.156-0.332-2.086-0.992-2.789
			C305.93,319.361,305.495,318.783,305.413,318.451z"/>
		<path stroke="#000000" stroke-miterlimit="10" d="M307.893,341.701c2.066-3.968,4.836-8.328,8.309-13.082
			c3.1-4.133,6.199-8.266,9.299-12.4c-1.735,1.158-3.596,2.295-5.579,3.41c-1.984,1.116-3.906,2.067-5.767,2.852l-0.434-1.426
			c2.066-0.66,4.422-1.756,7.068-3.285c3.72-2.148,5.992-3.41,6.82-3.782c0.412,0,0.619,0.187,0.619,0.558
			c-0.083,0.29-0.827,1.364-2.232,3.225c-0.909,1.199-1.797,2.377-2.666,3.533c-2.107,3.143-4.153,6.49-6.137,10.045
			c-1.695,3.018-3.514,6.469-5.457,10.354H307.893z"/>
		<path stroke="#000000" stroke-miterlimit="10" d="M341.434,320.497c0-0.826-0.434-1.322-1.301-1.487
			c-0.869-0.165-1.303-0.496-1.303-0.992l0.434-0.807l1.055-0.31c0.867,0,1.57,0.269,2.107,0.806s0.807,1.24,0.807,2.107
			c0,1.654-0.786,3.101-2.356,4.341c-1.199,0.951-2.728,1.716-4.588,2.294c0.826,0.91,1.497,1.891,2.015,2.945
			c0.517,1.054,0.775,2.139,0.775,3.255c0,2.646-1.055,4.908-3.162,6.788c-2.107,1.882-4.506,2.822-7.191,2.822
			c-2.026,0-3.742-0.496-5.146-1.488c-1.611-1.116-2.418-2.645-2.418-4.588c0-1.984,0.744-3.74,2.232-5.271
			c1.818-1.86,4.732-3.349,8.742-4.464c-0.621-0.826-1.096-1.57-1.427-2.232c-0.455-0.908-0.683-1.776-0.683-2.604
			c0-2.273,0.94-4.154,2.822-5.643c1.88-1.487,3.998-2.231,6.354-2.231c1.032,0,1.839,0.083,2.418,0.248
			c1.116,0.331,1.674,0.848,1.674,1.55l-0.248,0.62l-0.682,0.248c-0.29,0-1.24-0.269-2.853-0.806
			c-0.744-0.248-1.405-0.373-1.983-0.373c-1.448,0-2.708,0.445-3.782,1.334c-1.075,0.889-1.611,2.057-1.611,3.502
			c0,1.117,0.536,2.316,1.611,3.597c0.537,0.661,1.095,1.302,1.674,1.922c1.652-0.536,2.935-1.116,3.844-1.735
			C340.711,322.895,341.434,321.779,341.434,320.497z M323.764,335.191c0,1.611,0.527,2.967,1.582,4.061
			c1.053,1.096,2.365,1.643,3.937,1.643c1.983,0,3.72-0.66,5.208-1.983c1.488-1.322,2.232-2.954,2.232-4.897
			c0-1.24-0.395-2.48-1.179-3.721c-0.62-0.95-1.487-1.922-2.604-2.914c-2.438,0.58-4.443,1.406-6.014,2.48
			C324.819,331.307,323.764,333.083,323.764,335.191z"/>
	</g>
</g>
</svg>
